<svg xmlns="http://www.w3.org/2000/svg" viewBox="0 0 48 48"><path fill="#1e88e5" d="M44,24.5c0-1.76-1.02-3.26-2.49-4c0.3-0.61,0.49-1.28,0.49-2c0-2.41-1.9-4.36-4.28-4.48 c0.4-1.11,0.46-2.39-0.41-3.81c-0.38-0.62-0.9-1.14-1.52-1.52c-1.42-0.87-2.7-0.81-3.81-0.41C31.86,5.9,29.91,4,27.5,4 c-0.86,0-1.66,0.25-2.34,0.67C25.11,4.7,25.05,4.73,25,4.75C24.69,4.92,24.34,5,24,5s-0.69-0.08-1-0.25 c-0.05-0.02-0.11-0.05-0.16-0.08C22.16,4.25,21.36,4,20.5,4c-2.41,0-4.36,1.9-4.48,4.28c-1.11-0.4-2.39-0.46-3.81,0.41 c-0.62,0.38-1.14,0.9-1.52,1.52c-0.87,1.42-0.81,2.7-0.41,3.81C7.9,14.14,6,16.09,6,18.5c0,0.72,0.19,1.39,0.49,2 C5.02,21.24,4,22.74,4,24.5c0,1.44,0.69,2.71,1.74,3.53C5.28,28.74,5,29.59,5,30.5c0,1.63,0.87,3.04,2.17,3.83 C7.07,34.71,7,35.09,7,35.5c0,2.49,2.01,4.5,4.5,4.5c0.33,0,0.65-0.04,0.96-0.11C13.41,42.3,15.76,44,18.5,44 c1.59,0,3.04-0.57,4.17-1.52c0.1-0.09,0.21-0.16,0.33-0.22c0.31-0.18,0.65-0.26,1-0.26s0.69,0.08,1,0.26 c0.12,0.06,0.23,0.13,0.33,0.22C26.46,43.43,27.91,44,29.5,44c2.74,0,5.09-1.7,6.04-4.11C35.85,39.96,36.17,40,36.5,40 c2.49,0,4.5-2.01,4.5-4.5c0-0.41-0.07-0.79-0.17-1.17c1.3-0.79,2.17-2.2,2.17-3.83c0-0.91-0.28-1.76-0.74-2.47 C43.31,27.21,44,25.94,44,24.5z"></path><path fill="#81d4fa" d="M16 12H32V14H16zM20 37L18 37 18 33 10 33 10 27 12 27 12 31 20 31z"></path><path fill="#ffee58" d="M16 11A2 2 0 1 0 16 15 2 2 0 1 0 16 11zM11 25A2 2 0 1 0 11 29 2 2 0 1 0 11 25zM19 35A2 2 0 1 0 19 39 2 2 0 1 0 19 35z"></path><path fill="#81d4fa" d="M30 37L28 37 28 31 36 31 36 27 38 27 38 33 30 33z"></path><path fill="#ffee58" d="M37 25A2 2 0 1 0 37 29 2 2 0 1 0 37 25zM29 35A2 2 0 1 0 29 39 2 2 0 1 0 29 35zM31 11A2 2 0 1 0 31 15 2 2 0 1 0 31 11z"></path><path fill="#1976d2" d="M25,4.75v37.51C24.69,42.08,24.35,42,24,42s-0.69,0.08-1,0.26V4.75C23.31,4.92,23.66,5,24,5 S24.69,4.92,25,4.75z"></path><path fill="#81d4fa" d="M20 26L18 26 18 21 13 21 13 19 20 19z"></path><path fill="#ffee58" d="M19 24A2 2 0 1 0 19 28 2 2 0 1 0 19 24zM13 18A2 2 0 1 0 13 22 2 2 0 1 0 13 18z"></path><path fill="#81d4fa" d="M30 26L28 26 28 19 35 19 35 21 30 21z"></path><path fill="#ffee58" d="M29 24A2 2 0 1 0 29 28 2 2 0 1 0 29 24zM35 18A2 2 0 1 0 35 22 2 2 0 1 0 35 18z"></path></svg>